# MagicaVoxel @ Ephtracy

# group
o 

# material
mtllib flowers.mtl
usemtl palette

# normals
vn -1 0 0
vn 1 0 0
vn 0 0 1
vn 0 0 -1
vn 0 -1 0
vn 0 1 0

# texcoords
vt 0.978516 0.5
vt 0.982422 0.5
vt 0.986328 0.5
vt 0.990234 0.5

# verts
v 1 0.9 -0.4
v 1 0.9 -0.5
v 1 1 -0.4
v 1 1 -0.5
v 1 1.3 -0.5
v 1 1.3 -0.6
v 1 1.5 -0.5
v 1 1.5 -0.6
v 1.1 0.7 -0.4
v 1.1 0.7 -0.5
v 1.1 0.9 -0.4
v 1.1 0.9 -0.5
v 1.1 1.2 -0.3
v 1.1 1.2 -0.7
v 1.1 1.3 -0.3
v 1.1 1.3 -0.4
v 1.1 1.3 -0.5
v 1.1 1.3 -0.6
v 1.1 1.3 -0.7
v 1.1 1.3 -0.8
v 1.1 1.4 -0.3
v 1.1 1.4 -0.4
v 1.1 1.4 -0.6
v 1.1 1.4 -0.7
v 1.1 1.5 -0.4
v 1.1 1.5 -0.5
v 1.1 1.5 -0.7
v 1.1 1.5 -0.8
v 1.1 1.6 -0.3
v 1.1 1.6 -0.4
v 1.2 0 -0.5
v 1.2 0 -0.6
v 1.2 0.2 -0.5
v 1.2 0.2 -0.6
v 1.2 0.6 -0.4
v 1.2 0.6 -0.5
v 1.2 0.7 -0.4
v 1.2 0.7 -0.5
v 1.2 1.1 -0.4
v 1.2 1.1 -0.5
v 1.2 1.1 -0.6
v 1.2 1.1 -0.7
v 1.2 1.2 -0.4
v 1.2 1.2 -0.5
v 1.2 1.2 -0.6
v 1.2 1.2 -0.7
v 1.2 1.2 -0.8
v 1.2 1.3 -0.2
v 1.2 1.3 -0.3
v 1.2 1.3 -0.7
v 1.2 1.3 -0.8
v 1.2 1.4 -0.2
v 1.2 1.4 -0.3
v 1.2 1.4 -0.8
v 1.2 1.4 -0.9
v 1.2 1.5 -0.8
v 1.2 1.6 -0.8
v 1.2 1.6 -0.9
v 1.3 0 -0.4
v 1.3 0 -0.5
v 1.3 0.1 -0.6
v 1.3 0.1 -0.7
v 1.3 0.2 -0.5
v 1.3 0.2 -0.6
v 1.3 0.2 -0.7
v 1.3 0.3 -0.4
v 1.3 0.3 -0.5
v 1.3 0.4 -0.6
v 1.3 0.4 -0.7
v 1.3 0.5 -0.4
v 1.3 0.5 -0.5
v 1.3 0.6 -0.4
v 1.3 0.6 -0.5
v 1.3 0.6 -0.6
v 1.3 0.9 -0.5
v 1.3 0.9 -0.6
v 1.3 1.1 -0.5
v 1.3 1.1 -0.6
v 1.3 1.3 -0.3
v 1.3 1.3 -0.4
v 1.3 1.4 -0.2
v 1.3 1.4 -0.3
v 1.3 1.4 -0.4
v 1.3 1.5 -0.3
v 1.3 1.6 -0.2
v 1.3 1.6 -0.3
v 1.4 0.4 -0.7
v 1.4 0.4 -0.8
v 1.4 0.5 -0.7
v 1.4 0.5 -0.8
v 1.4 0.5 -0.9
v 1.4 0.6 -0.3
v 1.4 0.6 -0.4
v 1.4 0.6 -0.8
v 1.4 0.6 -0.9
v 1.4 0.7 -0.3
v 1.4 0.7 -0.4
v 1.4 1.3 -0.4
v 1.4 1.3 -0.6
v 1.4 1.4 -0.4
v 1.4 1.4 -0.5
v 1.4 1.4 -0.6
v 1.4 1.4 -0.7
v 1.4 1.5 -0.6
v 1.4 1.5 -0.7
v 1.4 1.7 -0.5
v 1.4 1.7 -0.6
v 1.5 0.7 -0.2
v 1.5 0.7 -0.3
v 1.5 0.8 -0.2
v 1.5 0.8 -0.3
v 1.5 1.4 -0.3
v 1.5 1.4 -0.4
v 1.5 1.4 -0.7
v 1.5 1.4 -0.8
v 1.5 1.5 -0.7
v 1.5 1.5 -0.8
v 1.5 1.6 -0.3
v 1.5 1.6 -0.4
v 1.6 1.4 -0.5
v 1.6 1.4 -0.6
v 1.6 1.5 -0.5
v 1.6 1.5 -0.6
v 1.6 1.5 -0.7
v 1.6 1.6 -0.6
v 1.6 1.6 -0.7
v 1.1 0.9 -0.4
v 1.1 0.9 -0.5
v 1.1 1 -0.4
v 1.1 1 -0.5
v 1.2 1.3 -0.4
v 1.2 1.3 -0.5
v 1.2 1.4 -0.4
v 1.2 1.4 -0.5
v 1.2 1.4 -0.6
v 1.2 1.5 -0.3
v 1.2 1.5 -0.4
v 1.2 1.5 -0.6
v 1.2 1.6 -0.3
v 1.2 1.6 -0.4
v 1.3 0.6 -0.4
v 1.3 0.6 -0.5
v 1.3 0.9 -0.4
v 1.3 0.9 -0.5
v 1.3 1.3 -0.2
v 1.3 1.3 -0.3
v 1.3 1.3 -0.5
v 1.3 1.3 -0.6
v 1.3 1.3 -0.7
v 1.3 1.3 -0.8
v 1.3 1.4 -0.2
v 1.3 1.4 -0.3
v 1.3 1.4 -0.4
v 1.3 1.4 -0.5
v 1.3 1.4 -0.6
v 1.3 1.4 -0.7
v 1.3 1.4 -0.8
v 1.3 1.4 -0.9
v 1.3 1.5 -0.3
v 1.3 1.5 -0.4
v 1.3 1.5 -0.7
v 1.3 1.5 -0.8
v 1.3 1.6 -0.8
v 1.3 1.6 -0.9
v 1.4 0 -0.4
v 1.4 0 -0.6
v 1.4 0.1 -0.6
v 1.4 0.1 -0.7
v 1.4 0.2 -0.6
v 1.4 0.2 -0.7
v 1.4 0.3 -0.4
v 1.4 0.3 -0.5
v 1.4 0.4 -0.6
v 1.4 0.4 -0.7
v 1.4 0.5 -0.4
v 1.4 0.5 -0.5
v 1.4 0.6 -0.4
v 1.4 0.6 -0.5
v 1.4 0.6 -0.6
v 1.4 0.9 -0.5
v 1.4 0.9 -0.6
v 1.4 1.1 -0.5
v 1.4 1.1 -0.6
v 1.4 1.2 -0.7
v 1.4 1.2 -0.8
v 1.4 1.3 -0.3
v 1.4 1.3 -0.4
v 1.4 1.3 -0.7
v 1.4 1.3 -0.8
v 1.4 1.4 -0.2
v 1.4 1.4 -0.3
v 1.4 1.4 -0.4
v 1.4 1.6 -0.2
v 1.4 1.6 -0.3
v 1.5 0.4 -0.7
v 1.5 0.4 -0.8
v 1.5 0.5 -0.7
v 1.5 0.5 -0.8
v 1.5 0.5 -0.9
v 1.5 0.6 -0.3
v 1.5 0.6 -0.4
v 1.5 0.6 -0.8
v 1.5 0.6 -0.9
v 1.5 0.7 -0.3
v 1.5 0.7 -0.4
v 1.5 1.1 -0.4
v 1.5 1.1 -0.5
v 1.5 1.1 -0.6
v 1.5 1.1 -0.7
v 1.5 1.2 -0.3
v 1.5 1.2 -0.4
v 1.5 1.2 -0.5
v 1.5 1.2 -0.6
v 1.5 1.3 -0.3
v 1.5 1.3 -0.4
v 1.5 1.3 -0.5
v 1.5 1.3 -0.6
v 1.5 1.3 -0.7
v 1.5 1.4 -0.5
v 1.5 1.4 -0.6
v 1.5 1.5 -0.6
v 1.5 1.7 -0.5
v 1.5 1.7 -0.6
v 1.6 0.7 -0.2
v 1.6 0.7 -0.3
v 1.6 0.8 -0.2
v 1.6 0.8 -0.3
v 1.6 1.2 -0.5
v 1.6 1.2 -0.6
v 1.6 1.3 -0.4
v 1.6 1.3 -0.5
v 1.6 1.3 -0.6
v 1.6 1.3 -0.7
v 1.6 1.4 -0.3
v 1.6 1.4 -0.4
v 1.6 1.4 -0.5
v 1.6 1.4 -0.7
v 1.6 1.4 -0.8
v 1.6 1.5 -0.6
v 1.6 1.5 -0.7
v 1.6 1.5 -0.8
v 1.6 1.6 -0.3
v 1.6 1.6 -0.4
v 1.7 1.3 -0.5
v 1.7 1.3 -0.6
v 1.7 1.5 -0.5
v 1.7 1.5 -0.6
v 1.7 1.5 -0.7
v 1.7 1.6 -0.6
v 1.7 1.6 -0.7
v 1.2 1.3 -0.2
v 1.2 1.4 -0.2
v 1.3 1.3 -0.2
v 1.3 1.4 -0.2
v 1.3 1.6 -0.2
v 1.4 1.4 -0.2
v 1.4 1.6 -0.2
v 1.5 0.7 -0.2
v 1.5 0.8 -0.2
v 1.6 0.7 -0.2
v 1.6 0.8 -0.2
v 1.1 1.2 -0.3
v 1.1 1.3 -0.3
v 1.1 1.4 -0.3
v 1.1 1.6 -0.3
v 1.2 1.3 -0.3
v 1.2 1.4 -0.3
v 1.2 1.5 -0.3
v 1.2 1.6 -0.3
v 1.3 1.3 -0.3
v 1.3 1.4 -0.3
v 1.3 1.5 -0.3
v 1.4 0.6 -0.3
v 1.4 0.7 -0.3
v 1.4 1.3 -0.3
v 1.4 1.4 -0.3
v 1.5 0.6 -0.3
v 1.5 0.7 -0.3
v 1.5 1.2 -0.3
v 1.5 1.3 -0.3
v 1.5 1.4 -0.3
v 1.5 1.6 -0.3
v 1.6 1.4 -0.3
v 1.6 1.6 -0.3
v 1 0.9 -0.4
v 1 1 -0.4
v 1.1 0.7 -0.4
v 1.1 0.9 -0.4
v 1.1 1 -0.4
v 1.1 1.3 -0.4
v 1.1 1.4 -0.4
v 1.2 0.6 -0.4
v 1.2 0.7 -0.4
v 1.2 0.9 -0.4
v 1.2 1.1 -0.4
v 1.2 1.2 -0.4
v 1.2 1.3 -0.4
v 1.2 1.4 -0.4
v 1.3 0 -0.4
v 1.3 0.3 -0.4
v 1.3 0.5 -0.4
v 1.3 0.6 -0.4
v 1.3 0.9 -0.4
v 1.3 1.1 -0.4
v 1.3 1.2 -0.4
v 1.4 0 -0.4
v 1.4 0.3 -0.4
v 1.4 0.5 -0.4
v 1.4 0.6 -0.4
v 1.4 1.1 -0.4
v 1.4 1.2 -0.4
v 1.4 1.3 -0.4
v 1.4 1.4 -0.4
v 1.5 1.1 -0.4
v 1.5 1.2 -0.4
v 1.5 1.3 -0.4
v 1.5 1.4 -0.4
v 1.6 1.3 -0.4
v 1.6 1.4 -0.4
v 1 1.3 -0.5
v 1 1.5 -0.5
v 1.1 1.3 -0.5
v 1.1 1.5 -0.5
v 1.2 0 -0.5
v 1.2 0.2 -0.5
v 1.2 1.3 -0.5
v 1.2 1.4 -0.5
v 1.3 0 -0.5
v 1.3 0.2 -0.5
v 1.3 0.3 -0.5
v 1.3 0.5 -0.5
v 1.3 0.9 -0.5
v 1.3 1.1 -0.5
v 1.3 1.3 -0.5
v 1.3 1.4 -0.5
v 1.4 0.3 -0.5
v 1.4 0.5 -0.5
v 1.4 0.9 -0.5
v 1.4 1.1 -0.5
v 1.4 1.4 -0.5
v 1.4 1.7 -0.5
v 1.5 1.2 -0.5
v 1.5 1.3 -0.5
v 1.5 1.4 -0.5
v 1.5 1.7 -0.5
v 1.6 1.2 -0.5
v 1.6 1.3 -0.5
v 1.6 1.4 -0.5
v 1.6 1.5 -0.5
v 1.7 1.3 -0.5
v 1.7 1.5 -0.5
v 1.3 1.3 -0.6
v 1.3 1.4 -0.6
v 1.4 1.3 -0.6
v 1.4 1.4 -0.6
v 1.5 1.4 -0.6
v 1.5 1.5 -0.6
v 1.6 1.4 -0.6
v 1.6 1.5 -0.6
v 1.6 1.6 -0.6
v 1.7 1.5 -0.6
v 1.7 1.6 -0.6
v 1.1 1.4 -0.7
v 1.1 1.5 -0.7
v 1.3 1.4 -0.7
v 1.3 1.5 -0.7
v 1.4 0.4 -0.7
v 1.4 0.5 -0.7
v 1.5 0.4 -0.7
v 1.5 0.5 -0.7
v 1.2 1.5 -0.8
v 1.2 1.6 -0.8
v 1.3 1.5 -0.8
v 1.3 1.6 -0.8
v 1.4 0.5 -0.8
v 1.4 0.6 -0.8
v 1.5 0.5 -0.8
v 1.5 0.6 -0.8
v 1.2 1.3 -0.3
v 1.2 1.4 -0.3
v 1.3 1.3 -0.3
v 1.3 1.4 -0.3
v 1.3 1.5 -0.3
v 1.3 1.6 -0.3
v 1.4 1.4 -0.3
v 1.4 1.6 -0.3
v 1.5 0.7 -0.3
v 1.5 0.8 -0.3
v 1.6 0.7 -0.3
v 1.6 0.8 -0.3
v 1.1 1.5 -0.4
v 1.1 1.6 -0.4
v 1.2 1.4 -0.4
v 1.2 1.5 -0.4
v 1.2 1.6 -0.4
v 1.3 1.3 -0.4
v 1.3 1.4 -0.4
v 1.3 1.5 -0.4
v 1.4 0.6 -0.4
v 1.4 0.7 -0.4
v 1.4 1.3 -0.4
v 1.4 1.4 -0.4
v 1.5 0.6 -0.4
v 1.5 0.7 -0.4
v 1.5 1.4 -0.4
v 1.5 1.6 -0.4
v 1.6 1.4 -0.4
v 1.6 1.6 -0.4
v 1 0.9 -0.5
v 1 1 -0.5
v 1.1 0.7 -0.5
v 1.1 0.9 -0.5
v 1.1 1 -0.5
v 1.2 0.6 -0.5
v 1.2 0.7 -0.5
v 1.2 0.9 -0.5
v 1.3 0.6 -0.5
v 1.3 0.9 -0.5
v 1 1.3 -0.6
v 1 1.5 -0.6
v 1.1 1.3 -0.6
v 1.1 1.4 -0.6
v 1.2 0 -0.6
v 1.2 0.2 -0.6
v 1.2 1.4 -0.6
v 1.2 1.5 -0.6
v 1.3 0.1 -0.6
v 1.3 0.2 -0.6
v 1.3 0.4 -0.6
v 1.3 0.6 -0.6
v 1.3 0.9 -0.6
v 1.3 1.1 -0.6
v 1.4 0 -0.6
v 1.4 0.1 -0.6
v 1.4 0.4 -0.6
v 1.4 0.6 -0.6
v 1.4 0.9 -0.6
v 1.4 1.1 -0.6
v 1.4 1.5 -0.6
v 1.4 1.7 -0.6
v 1.5 1.2 -0.6
v 1.5 1.3 -0.6
v 1.5 1.5 -0.6
v 1.5 1.7 -0.6
v 1.6 1.2 -0.6
v 1.6 1.3 -0.6
v 1.6 1.5 -0.6
v 1.7 1.3 -0.6
v 1.7 1.5 -0.6
v 1.1 1.2 -0.7
v 1.1 1.3 -0.7
v 1.2 1.1 -0.7
v 1.2 1.2 -0.7
v 1.2 1.3 -0.7
v 1.3 0.1 -0.7
v 1.3 0.2 -0.7
v 1.3 0.4 -0.7
v 1.3 1.1 -0.7
v 1.3 1.2 -0.7
v 1.3 1.3 -0.7
v 1.3 1.4 -0.7
v 1.4 0.1 -0.7
v 1.4 0.2 -0.7
v 1.4 0.4 -0.7
v 1.4 1.1 -0.7
v 1.4 1.2 -0.7
v 1.4 1.3 -0.7
v 1.4 1.4 -0.7
v 1.4 1.5 -0.7
v 1.5 1.1 -0.7
v 1.5 1.3 -0.7
v 1.5 1.4 -0.7
v 1.5 1.5 -0.7
v 1.6 1.3 -0.7
v 1.6 1.4 -0.7
v 1.6 1.5 -0.7
v 1.6 1.6 -0.7
v 1.7 1.5 -0.7
v 1.7 1.6 -0.7
v 1.1 1.3 -0.8
v 1.1 1.5 -0.8
v 1.2 1.2 -0.8
v 1.2 1.3 -0.8
v 1.2 1.4 -0.8
v 1.2 1.5 -0.8
v 1.3 1.3 -0.8
v 1.3 1.4 -0.8
v 1.4 0.4 -0.8
v 1.4 0.5 -0.8
v 1.4 1.2 -0.8
v 1.4 1.3 -0.8
v 1.5 0.4 -0.8
v 1.5 0.5 -0.8
v 1.5 1.4 -0.8
v 1.5 1.5 -0.8
v 1.6 1.4 -0.8
v 1.6 1.5 -0.8
v 1.2 1.4 -0.9
v 1.2 1.6 -0.9
v 1.3 1.4 -0.9
v 1.3 1.6 -0.9
v 1.4 0.5 -0.9
v 1.4 0.6 -0.9
v 1.5 0.5 -0.9
v 1.5 0.6 -0.9
v 1.3 0 -0.4
v 1.4 0 -0.4
v 1.2 0 -0.5
v 1.3 0 -0.5
v 1.2 0 -0.6
v 1.4 0 -0.6
v 1.3 0.1 -0.6
v 1.4 0.1 -0.6
v 1.3 0.1 -0.7
v 1.4 0.1 -0.7
v 1.4 0.4 -0.7
v 1.5 0.4 -0.7
v 1.4 0.4 -0.8
v 1.5 0.4 -0.8
v 1.3 0.5 -0.4
v 1.4 0.5 -0.4
v 1.3 0.5 -0.5
v 1.4 0.5 -0.5
v 1.4 0.5 -0.8
v 1.5 0.5 -0.8
v 1.4 0.5 -0.9
v 1.5 0.5 -0.9
v 1.4 0.6 -0.3
v 1.5 0.6 -0.3
v 1.2 0.6 -0.4
v 1.3 0.6 -0.4
v 1.4 0.6 -0.4
v 1.5 0.6 -0.4
v 1.2 0.6 -0.5
v 1.3 0.6 -0.5
v 1.5 0.7 -0.2
v 1.6 0.7 -0.2
v 1.5 0.7 -0.3
v 1.6 0.7 -0.3
v 1.1 0.7 -0.4
v 1.2 0.7 -0.4
v 1.1 0.7 -0.5
v 1.2 0.7 -0.5
v 1 0.9 -0.4
v 1.1 0.9 -0.4
v 1 0.9 -0.5
v 1.1 0.9 -0.5
v 1.3 0.9 -0.5
v 1.4 0.9 -0.5
v 1.3 0.9 -0.6
v 1.4 0.9 -0.6
v 1.2 1.1 -0.4
v 1.3 1.1 -0.4
v 1.4 1.1 -0.4
v 1.5 1.1 -0.4
v 1.2 1.1 -0.5
v 1.3 1.1 -0.5
v 1.4 1.1 -0.5
v 1.5 1.1 -0.5
v 1.2 1.1 -0.6
v 1.3 1.1 -0.6
v 1.4 1.1 -0.6
v 1.5 1.1 -0.6
v 1.2 1.1 -0.7
v 1.3 1.1 -0.7
v 1.4 1.1 -0.7
v 1.5 1.1 -0.7
v 1.1 1.2 -0.3
v 1.5 1.2 -0.3
v 1.2 1.2 -0.4
v 1.3 1.2 -0.4
v 1.4 1.2 -0.4
v 1.5 1.2 -0.4
v 1.2 1.2 -0.5
v 1.5 1.2 -0.5
v 1.6 1.2 -0.5
v 1.2 1.2 -0.6
v 1.5 1.2 -0.6
v 1.6 1.2 -0.6
v 1.1 1.2 -0.7
v 1.2 1.2 -0.7
v 1.3 1.2 -0.7
v 1.4 1.2 -0.7
v 1.2 1.2 -0.8
v 1.4 1.2 -0.8
v 1.2 1.3 -0.2
v 1.3 1.3 -0.2
v 1.2 1.3 -0.3
v 1.3 1.3 -0.3
v 1.5 1.3 -0.4
v 1.6 1.3 -0.4
v 1 1.3 -0.5
v 1.1 1.3 -0.5
v 1.5 1.3 -0.5
v 1.6 1.3 -0.5
v 1.7 1.3 -0.5
v 1 1.3 -0.6
v 1.1 1.3 -0.6
v 1.5 1.3 -0.6
v 1.6 1.3 -0.6
v 1.7 1.3 -0.6
v 1.1 1.3 -0.7
v 1.2 1.3 -0.7
v 1.5 1.3 -0.7
v 1.6 1.3 -0.7
v 1.1 1.3 -0.8
v 1.2 1.3 -0.8
v 1.3 1.4 -0.2
v 1.4 1.4 -0.2
v 1.1 1.4 -0.3
v 1.2 1.4 -0.3
v 1.3 1.4 -0.3
v 1.4 1.4 -0.3
v 1.5 1.4 -0.3
v 1.6 1.4 -0.3
v 1.1 1.4 -0.4
v 1.2 1.4 -0.4
v 1.3 1.4 -0.4
v 1.5 1.4 -0.4
v 1.6 1.4 -0.4
v 1.5 1.4 -0.7
v 1.6 1.4 -0.7
v 1.2 1.4 -0.8
v 1.3 1.4 -0.8
v 1.5 1.4 -0.8
v 1.6 1.4 -0.8
v 1.2 1.4 -0.9
v 1.3 1.4 -0.9
v 1.6 1.5 -0.6
v 1.7 1.5 -0.6
v 1.6 1.5 -0.7
v 1.7 1.5 -0.7
v 1.2 0.2 -0.5
v 1.3 0.2 -0.5
v 1.2 0.2 -0.6
v 1.3 0.2 -0.6
v 1.3 0.3 -0.4
v 1.4 0.3 -0.4
v 1.3 0.3 -0.5
v 1.4 0.3 -0.5
v 1.3 0.4 -0.6
v 1.4 0.4 -0.6
v 1.3 0.4 -0.7
v 1.4 0.4 -0.7
v 1.4 0.5 -0.7
v 1.5 0.5 -0.7
v 1.4 0.5 -0.8
v 1.5 0.5 -0.8
v 1.3 0.6 -0.4
v 1.4 0.6 -0.4
v 1.3 0.6 -0.5
v 1.4 0.6 -0.5
v 1.3 0.6 -0.6
v 1.4 0.6 -0.6
v 1.4 0.6 -0.8
v 1.5 0.6 -0.8
v 1.4 0.6 -0.9
v 1.5 0.6 -0.9
v 1.4 0.7 -0.3
v 1.5 0.7 -0.3
v 1.4 0.7 -0.4
v 1.5 0.7 -0.4
v 1.5 0.8 -0.2
v 1.6 0.8 -0.2
v 1.5 0.8 -0.3
v 1.6 0.8 -0.3
v 1.1 0.9 -0.4
v 1.2 0.9 -0.4
v 1.3 0.9 -0.4
v 1.1 0.9 -0.5
v 1.2 0.9 -0.5
v 1.3 0.9 -0.5
v 1 1 -0.4
v 1.1 1 -0.4
v 1 1 -0.5
v 1.1 1 -0.5
v 1.1 1.3 -0.3
v 1.2 1.3 -0.3
v 1.3 1.3 -0.3
v 1.4 1.3 -0.3
v 1.5 1.3 -0.3
v 1.1 1.3 -0.4
v 1.2 1.3 -0.4
v 1.3 1.3 -0.4
v 1.4 1.3 -0.4
v 1.5 1.3 -0.4
v 1.2 1.3 -0.5
v 1.3 1.3 -0.5
v 1.3 1.3 -0.6
v 1.4 1.3 -0.6
v 1.3 1.3 -0.7
v 1.4 1.3 -0.7
v 1.3 1.3 -0.8
v 1.4 1.3 -0.8
v 1.2 1.4 -0.2
v 1.3 1.4 -0.2
v 1.2 1.4 -0.3
v 1.3 1.4 -0.3
v 1.4 1.4 -0.3
v 1.3 1.4 -0.4
v 1.4 1.4 -0.4
v 1.5 1.4 -0.4
v 1.6 1.4 -0.4
v 1.2 1.4 -0.5
v 1.3 1.4 -0.5
v 1.4 1.4 -0.5
v 1.5 1.4 -0.5
v 1.6 1.4 -0.5
v 1.1 1.4 -0.6
v 1.2 1.4 -0.6
v 1.3 1.4 -0.6
v 1.4 1.4 -0.6
v 1.5 1.4 -0.6
v 1.6 1.4 -0.6
v 1.1 1.4 -0.7
v 1.3 1.4 -0.7
v 1.4 1.4 -0.7
v 1.2 1.5 -0.3
v 1.3 1.5 -0.3
v 1.1 1.5 -0.4
v 1.2 1.5 -0.4
v 1.3 1.5 -0.4
v 1 1.5 -0.5
v 1.1 1.5 -0.5
v 1.6 1.5 -0.5
v 1.7 1.5 -0.5
v 1 1.5 -0.6
v 1.2 1.5 -0.6
v 1.4 1.5 -0.6
v 1.5 1.5 -0.6
v 1.6 1.5 -0.6
v 1.7 1.5 -0.6
v 1.1 1.5 -0.7
v 1.3 1.5 -0.7
v 1.4 1.5 -0.7
v 1.5 1.5 -0.7
v 1.6 1.5 -0.7
v 1.1 1.5 -0.8
v 1.2 1.5 -0.8
v 1.3 1.5 -0.8
v 1.5 1.5 -0.8
v 1.6 1.5 -0.8
v 1.3 1.6 -0.2
v 1.4 1.6 -0.2
v 1.1 1.6 -0.3
v 1.2 1.6 -0.3
v 1.3 1.6 -0.3
v 1.4 1.6 -0.3
v 1.5 1.6 -0.3
v 1.6 1.6 -0.3
v 1.1 1.6 -0.4
v 1.2 1.6 -0.4
v 1.5 1.6 -0.4
v 1.6 1.6 -0.4
v 1.6 1.6 -0.6
v 1.7 1.6 -0.6
v 1.6 1.6 -0.7
v 1.7 1.6 -0.7
v 1.2 1.6 -0.8
v 1.3 1.6 -0.8
v 1.2 1.6 -0.9
v 1.3 1.6 -0.9
v 1.4 1.7 -0.5
v 1.5 1.7 -0.5
v 1.4 1.7 -0.6
v 1.5 1.7 -0.6

# faces
f 3/1/1 2/1/1 1/1/1
f 4/1/1 2/1/1 3/1/1
f 7/3/1 6/3/1 5/3/1
f 8/3/1 6/3/1 7/3/1
f 11/1/1 10/1/1 9/1/1
f 12/1/1 10/1/1 11/1/1
f 15/3/1 14/3/1 13/3/1
f 16/3/1 14/3/1 15/3/1
f 17/3/1 14/3/1 16/3/1
f 18/3/1 14/3/1 17/3/1
f 19/3/1 14/3/1 18/3/1
f 22/3/1 17/3/1 16/3/1
f 23/3/1 20/3/1 19/3/1
f 23/3/1 19/3/1 18/3/1
f 24/3/1 20/3/1 23/3/1
f 25/3/1 22/3/1 21/3/1
f 25/3/1 17/3/1 22/3/1
f 26/3/1 17/3/1 25/3/1
f 27/3/1 20/3/1 24/3/1
f 28/3/1 20/3/1 27/3/1
f 29/3/1 25/3/1 21/3/1
f 30/3/1 25/3/1 29/3/1
f 33/2/1 32/2/1 31/2/1
f 34/2/1 32/2/1 33/2/1
f 37/2/1 36/2/1 35/2/1
f 38/2/1 36/2/1 37/2/1
f 43/3/1 40/3/1 39/3/1
f 44/2/1 41/2/1 40/2/1
f 44/3/1 40/3/1 43/3/1
f 45/3/1 42/3/1 41/3/1
f 45/2/1 41/2/1 44/2/1
f 46/3/1 42/3/1 45/3/1
f 50/3/1 47/3/1 46/3/1
f 51/3/1 47/3/1 50/3/1
f 52/3/1 49/3/1 48/3/1
f 53/3/1 49/3/1 52/3/1
f 56/3/1 55/3/1 54/3/1
f 57/3/1 55/3/1 56/3/1
f 58/3/1 55/3/1 57/3/1
f 63/2/1 60/2/1 59/2/1
f 64/2/1 62/2/1 61/2/1
f 65/2/1 62/2/1 64/2/1
f 66/2/1 63/2/1 59/2/1
f 66/2/1 64/2/1 63/2/1
f 67/2/1 64/2/1 66/2/1
f 68/1/1 65/1/1 64/1/1
f 68/2/1 64/2/1 67/2/1
f 69/1/1 65/1/1 68/1/1
f 71/2/1 68/2/1 67/2/1
f 72/1/1 71/1/1 70/1/1
f 73/2/1 68/2/1 71/2/1
f 73/1/1 71/1/1 72/1/1
f 74/2/1 68/2/1 73/2/1
f 77/2/1 76/2/1 75/2/1
f 78/2/1 76/2/1 77/2/1
f 82/3/1 80/3/1 79/3/1
f 83/3/1 80/3/1 82/3/1
f 84/3/1 82/3/1 81/3/1
f 85/3/1 84/3/1 81/3/1
f 86/3/1 84/3/1 85/3/1
f 89/1/1 88/1/1 87/1/1
f 90/1/1 88/1/1 89/1/1
f 94/1/1 91/1/1 90/1/1
f 95/1/1 91/1/1 94/1/1
f 96/1/1 93/1/1 92/1/1
f 97/1/1 93/1/1 96/1/1
f 100/3/1 99/3/1 98/3/1
f 101/3/1 99/3/1 100/3/1
f 102/3/1 99/3/1 101/3/1
f 104/3/1 103/3/1 102/3/1
f 104/3/1 102/3/1 101/3/1
f 105/3/1 103/3/1 104/3/1
f 106/3/1 104/3/1 101/3/1
f 107/3/1 104/3/1 106/3/1
f 110/1/1 109/1/1 108/1/1
f 111/1/1 109/1/1 110/1/1
f 116/3/1 115/3/1 114/3/1
f 117/3/1 115/3/1 116/3/1
f 118/3/1 113/3/1 112/3/1
f 119/3/1 113/3/1 118/3/1
f 122/3/1 121/3/1 120/3/1
f 123/3/1 121/3/1 122/3/1
f 125/3/1 124/3/1 123/3/1
f 126/3/1 124/3/1 125/3/1
f 127/1/2 128/1/2 129/1/2
f 129/1/2 128/1/2 130/1/2
f 131/3/2 132/3/2 133/3/2
f 133/3/2 132/3/2 134/3/2
f 133/3/2 134/3/2 137/3/2
f 134/3/2 135/3/2 137/3/2
f 137/3/2 135/3/2 138/3/2
f 136/3/2 137/3/2 139/3/2
f 139/3/2 137/3/2 140/3/2
f 141/2/2 142/2/2 143/2/2
f 143/2/2 142/2/2 144/2/2
f 145/3/2 146/3/2 151/3/2
f 151/3/2 146/3/2 152/3/2
f 147/3/2 148/3/2 154/3/2
f 154/3/2 148/3/2 155/3/2
f 149/3/2 150/3/2 156/3/2
f 156/3/2 150/3/2 157/3/2
f 152/3/2 153/3/2 159/3/2
f 159/3/2 153/3/2 160/3/2
f 157/3/2 158/3/2 161/3/2
f 156/3/2 157/3/2 161/3/2
f 161/3/2 158/3/2 162/3/2
f 162/3/2 158/3/2 163/3/2
f 163/3/2 158/3/2 164/3/2
f 165/2/2 166/2/2 167/2/2
f 165/2/2 167/2/2 169/2/2
f 167/2/2 168/2/2 169/2/2
f 169/2/2 168/2/2 170/2/2
f 165/2/2 169/2/2 171/2/2
f 171/2/2 169/2/2 172/2/2
f 169/1/2 170/1/2 173/1/2
f 172/2/2 169/2/2 173/2/2
f 173/1/2 170/1/2 174/1/2
f 172/2/2 173/2/2 176/2/2
f 175/1/2 176/1/2 177/1/2
f 176/2/2 173/2/2 178/2/2
f 177/1/2 176/1/2 178/1/2
f 178/2/2 173/2/2 179/2/2
f 180/2/2 181/2/2 182/2/2
f 182/2/2 181/2/2 183/2/2
f 184/3/2 185/3/2 188/3/2
f 188/3/2 185/3/2 189/3/2
f 186/3/2 187/3/2 191/3/2
f 191/3/2 187/3/2 192/3/2
f 190/3/2 191/3/2 193/3/2
f 193/3/2 191/3/2 194/3/2
f 195/1/2 196/1/2 197/1/2
f 197/1/2 196/1/2 198/1/2
f 198/1/2 199/1/2 202/1/2
f 202/1/2 199/1/2 203/1/2
f 200/1/2 201/1/2 204/1/2
f 204/1/2 201/1/2 205/1/2
f 206/3/2 207/3/2 211/3/2
f 207/2/2 208/2/2 212/2/2
f 211/3/2 207/3/2 212/3/2
f 208/3/2 209/3/2 213/3/2
f 212/2/2 208/2/2 213/2/2
f 211/3/2 212/3/2 214/3/2
f 210/3/2 211/3/2 214/3/2
f 214/3/2 212/3/2 215/3/2
f 215/3/2 212/3/2 216/3/2
f 213/3/2 209/3/2 217/3/2
f 217/3/2 209/3/2 218/3/2
f 219/3/2 220/3/2 221/3/2
f 219/3/2 221/3/2 222/3/2
f 222/3/2 221/3/2 223/3/2
f 224/1/2 225/1/2 226/1/2
f 226/1/2 225/1/2 227/1/2
f 228/3/2 229/3/2 231/3/2
f 231/3/2 229/3/2 232/3/2
f 230/3/2 231/3/2 235/3/2
f 235/3/2 231/3/2 236/3/2
f 232/3/2 233/3/2 237/3/2
f 237/3/2 238/3/2 239/3/2
f 232/3/2 237/3/2 239/3/2
f 239/3/2 238/3/2 240/3/2
f 240/3/2 238/3/2 241/3/2
f 234/3/2 235/3/2 242/3/2
f 242/3/2 235/3/2 243/3/2
f 244/3/2 245/3/2 246/3/2
f 246/3/2 245/3/2 247/3/2
f 247/3/2 248/3/2 249/3/2
f 249/3/2 248/3/2 250/3/2
f 253/3/3 252/3/3 251/3/3
f 254/3/3 252/3/3 253/3/3
f 256/3/3 255/3/3 254/3/3
f 257/3/3 255/3/3 256/3/3
f 260/1/3 259/1/3 258/1/3
f 261/1/3 259/1/3 260/1/3
f 266/3/3 263/3/3 262/3/3
f 267/3/3 265/3/3 264/3/3
f 268/3/3 265/3/3 267/3/3
f 269/3/3 265/3/3 268/3/3
f 270/3/3 266/3/3 262/3/3
f 271/3/3 268/3/3 267/3/3
f 272/3/3 268/3/3 271/3/3
f 275/3/3 270/3/3 262/3/3
f 275/3/3 271/3/3 270/3/3
f 276/3/3 271/3/3 275/3/3
f 277/1/3 274/1/3 273/1/3
f 278/1/3 274/1/3 277/1/3
f 279/3/3 275/3/3 262/3/3
f 280/3/3 275/3/3 279/3/3
f 283/3/3 282/3/3 281/3/3
f 284/3/3 282/3/3 283/3/3
f 288/1/3 286/1/3 285/1/3
f 289/1/3 286/1/3 288/1/3
f 293/1/3 288/1/3 287/1/3
f 294/1/3 288/1/3 293/1/3
f 297/3/3 291/3/3 290/3/3
f 298/3/3 291/3/3 297/3/3
f 302/2/3 293/2/3 292/2/3
f 302/2/3 294/2/3 293/2/3
f 303/2/3 294/2/3 302/2/3
f 304/3/3 296/3/3 295/3/3
f 305/3/3 296/3/3 304/3/3
f 306/2/3 300/2/3 299/2/3
f 307/2/3 300/2/3 306/2/3
f 308/1/3 302/1/3 301/1/3
f 309/1/3 302/1/3 308/1/3
f 310/2/3 305/2/3 304/2/3
f 311/2/3 305/2/3 310/2/3
f 314/3/3 311/3/3 310/3/3
f 315/3/3 311/3/3 314/3/3
f 316/3/3 313/3/3 312/3/3
f 317/3/3 313/3/3 316/3/3
f 318/3/3 317/3/3 316/3/3
f 319/3/3 317/3/3 318/3/3
f 322/3/3 321/3/3 320/3/3
f 323/3/3 321/3/3 322/3/3
f 328/2/3 325/2/3 324/2/3
f 329/2/3 325/2/3 328/2/3
f 334/3/3 327/3/3 326/3/3
f 335/3/3 327/3/3 334/3/3
f 336/2/3 331/2/3 330/2/3
f 337/2/3 331/2/3 336/2/3
f 338/2/3 333/2/3 332/2/3
f 339/2/3 333/2/3 338/2/3
f 344/3/3 341/3/3 340/3/3
f 345/3/3 341/3/3 344/3/3
f 346/3/3 343/3/3 342/3/3
f 347/3/3 343/3/3 346/3/3
f 350/3/3 349/3/3 348/3/3
f 350/3/3 348/3/3 347/3/3
f 351/3/3 349/3/3 350/3/3
f 354/3/3 353/3/3 352/3/3
f 355/3/3 353/3/3 354/3/3
f 358/3/3 357/3/3 356/3/3
f 359/3/3 357/3/3 358/3/3
f 361/3/3 360/3/3 359/3/3
f 362/3/3 360/3/3 361/3/3
f 365/3/3 364/3/3 363/3/3
f 366/3/3 364/3/3 365/3/3
f 369/1/3 368/1/3 367/1/3
f 370/1/3 368/1/3 369/1/3
f 373/3/3 372/3/3 371/3/3
f 374/3/3 372/3/3 373/3/3
f 377/1/3 376/1/3 375/1/3
f 378/1/3 376/1/3 377/1/3
f 379/3/4 380/3/4 381/3/4
f 381/3/4 380/3/4 382/3/4
f 383/3/4 384/3/4 385/3/4
f 382/3/4 383/3/4 385/3/4
f 385/3/4 384/3/4 386/3/4
f 387/1/4 388/1/4 389/1/4
f 389/1/4 388/1/4 390/1/4
f 391/3/4 392/3/4 394/3/4
f 394/3/4 392/3/4 395/3/4
f 393/3/4 394/3/4 397/3/4
f 397/3/4 394/3/4 398/3/4
f 396/3/4 397/3/4 401/3/4
f 401/3/4 397/3/4 402/3/4
f 399/1/4 400/1/4 403/1/4
f 403/1/4 400/1/4 404/1/4
f 405/3/4 406/3/4 407/3/4
f 407/3/4 406/3/4 408/3/4
f 409/1/4 410/1/4 412/1/4
f 412/1/4 410/1/4 413/1/4
f 411/1/4 412/1/4 415/1/4
f 415/1/4 412/1/4 416/1/4
f 414/2/4 415/2/4 417/2/4
f 415/2/4 416/2/4 417/2/4
f 417/2/4 416/2/4 418/2/4
f 419/3/4 420/3/4 421/3/4
f 421/3/4 420/3/4 422/3/4
f 422/3/4 420/3/4 425/3/4
f 425/3/4 420/3/4 426/3/4
f 423/2/4 424/2/4 427/2/4
f 427/2/4 424/2/4 428/2/4
f 423/2/4 427/2/4 433/2/4
f 433/2/4 427/2/4 434/2/4
f 429/2/4 430/2/4 435/2/4
f 435/2/4 430/2/4 436/2/4
f 431/2/4 432/2/4 437/2/4
f 437/2/4 432/2/4 438/2/4
f 439/3/4 440/3/4 443/3/4
f 443/3/4 440/3/4 444/3/4
f 441/3/4 442/3/4 445/3/4
f 445/3/4 442/3/4 446/3/4
f 446/3/4 447/3/4 448/3/4
f 448/3/4 447/3/4 449/3/4
f 450/3/4 451/3/4 453/3/4
f 453/3/4 451/3/4 454/3/4
f 452/3/4 453/3/4 458/3/4
f 458/3/4 453/3/4 459/3/4
f 455/2/4 456/2/4 462/2/4
f 456/1/4 457/1/4 463/1/4
f 462/2/4 456/2/4 463/2/4
f 463/1/4 457/1/4 464/1/4
f 458/2/4 459/2/4 465/2/4
f 465/2/4 459/2/4 466/2/4
f 460/3/4 461/3/4 467/3/4
f 467/3/4 461/3/4 468/3/4
f 468/3/4 469/3/4 470/3/4
f 467/3/4 468/3/4 470/3/4
f 466/3/4 467/3/4 470/3/4
f 465/3/4 466/3/4 470/3/4
f 470/3/4 469/3/4 471/3/4
f 471/3/4 469/3/4 472/3/4
f 472/3/4 469/3/4 473/3/4
f 471/3/4 472/3/4 474/3/4
f 474/3/4 472/3/4 475/3/4
f 476/3/4 477/3/4 478/3/4
f 478/3/4 477/3/4 479/3/4
f 480/3/4 481/3/4 483/3/4
f 483/3/4 481/3/4 484/3/4
f 484/3/4 481/3/4 485/3/4
f 482/3/4 483/3/4 486/3/4
f 483/3/4 484/3/4 486/3/4
f 486/3/4 484/3/4 487/3/4
f 482/3/4 486/3/4 490/3/4
f 490/3/4 486/3/4 491/3/4
f 488/1/4 489/1/4 492/1/4
f 492/1/4 489/1/4 493/1/4
f 494/3/4 495/3/4 496/3/4
f 496/3/4 495/3/4 497/3/4
f 498/3/4 499/3/4 500/3/4
f 500/3/4 499/3/4 501/3/4
f 502/1/4 503/1/4 504/1/4
f 504/1/4 503/1/4 505/1/4
f 509/2/5 507/2/5 506/2/5
f 510/2/5 509/2/5 508/2/5
f 511/2/5 507/2/5 509/2/5
f 511/2/5 509/2/5 510/2/5
f 514/2/5 513/2/5 512/2/5
f 515/2/5 513/2/5 514/2/5
f 518/1/5 517/1/5 516/1/5
f 519/1/5 517/1/5 518/1/5
f 522/1/5 521/1/5 520/1/5
f 523/1/5 521/1/5 522/1/5
f 526/1/5 525/1/5 524/1/5
f 527/1/5 525/1/5 526/1/5
f 532/1/5 529/1/5 528/1/5
f 533/1/5 529/1/5 532/1/5
f 534/2/5 531/2/5 530/2/5
f 535/2/5 531/2/5 534/2/5
f 538/1/5 537/1/5 536/1/5
f 539/1/5 537/1/5 538/1/5
f 542/1/5 541/1/5 540/1/5
f 543/1/5 541/1/5 542/1/5
f 546/1/5 545/1/5 544/1/5
f 547/1/5 545/1/5 546/1/5
f 550/2/5 549/2/5 548/2/5
f 551/2/5 549/2/5 550/2/5
f 556/3/5 553/3/5 552/3/5
f 557/2/5 554/2/5 553/2/5
f 557/3/5 553/3/5 556/3/5
f 558/3/5 555/3/5 554/3/5
f 558/2/5 554/2/5 557/2/5
f 559/3/5 555/3/5 558/3/5
f 560/2/5 557/2/5 556/2/5
f 561/2/5 557/2/5 560/2/5
f 562/2/5 559/2/5 558/2/5
f 563/2/5 559/2/5 562/2/5
f 564/3/5 561/3/5 560/3/5
f 565/2/5 562/2/5 561/2/5
f 565/3/5 561/3/5 564/3/5
f 566/3/5 563/3/5 562/3/5
f 566/2/5 562/2/5 565/2/5
f 567/3/5 563/3/5 566/3/5
f 570/3/5 569/3/5 568/3/5
f 571/3/5 569/3/5 570/3/5
f 572/3/5 569/3/5 571/3/5
f 573/3/5 569/3/5 572/3/5
f 574/3/5 570/3/5 568/3/5
f 577/3/5 574/3/5 568/3/5
f 578/3/5 576/3/5 575/3/5
f 579/3/5 576/3/5 578/3/5
f 580/3/5 577/3/5 568/3/5
f 581/3/5 577/3/5 580/3/5
f 584/3/5 583/3/5 582/3/5
f 584/3/5 582/3/5 581/3/5
f 585/3/5 583/3/5 584/3/5
f 588/3/5 587/3/5 586/3/5
f 589/3/5 587/3/5 588/3/5
f 594/3/5 591/3/5 590/3/5
f 595/3/5 591/3/5 594/3/5
f 597/3/5 593/3/5 592/3/5
f 598/3/5 593/3/5 597/3/5
f 600/3/5 596/3/5 595/3/5
f 601/3/5 596/3/5 600/3/5
f 604/3/5 600/3/5 599/3/5
f 605/3/5 600/3/5 604/3/5
f 606/3/5 603/3/5 602/3/5
f 607/3/5 603/3/5 606/3/5
f 612/3/5 609/3/5 608/3/5
f 613/3/5 609/3/5 612/3/5
f 616/3/5 611/3/5 610/3/5
f 616/3/5 612/3/5 611/3/5
f 617/3/5 612/3/5 616/3/5
f 618/3/5 612/3/5 617/3/5
f 619/3/5 615/3/5 614/3/5
f 620/3/5 615/3/5 619/3/5
f 625/3/5 622/3/5 621/3/5
f 626/3/5 622/3/5 625/3/5
f 627/3/5 624/3/5 623/3/5
f 628/3/5 624/3/5 627/3/5
f 631/3/5 630/3/5 629/3/5
f 632/3/5 630/3/5 631/3/5
f 633/2/6 634/2/6 635/2/6
f 635/2/6 634/2/6 636/2/6
f 637/2/6 638/2/6 639/2/6
f 639/2/6 638/2/6 640/2/6
f 641/1/6 642/1/6 643/1/6
f 643/1/6 642/1/6 644/1/6
f 645/1/6 646/1/6 647/1/6
f 647/1/6 646/1/6 648/1/6
f 649/1/6 650/1/6 651/1/6
f 651/1/6 650/1/6 652/1/6
f 651/2/6 652/2/6 653/2/6
f 653/2/6 652/2/6 654/2/6
f 655/1/6 656/1/6 657/1/6
f 657/1/6 656/1/6 658/1/6
f 659/1/6 660/1/6 661/1/6
f 661/1/6 660/1/6 662/1/6
f 663/1/6 664/1/6 665/1/6
f 665/1/6 664/1/6 666/1/6
f 667/1/6 668/1/6 670/1/6
f 668/2/6 669/2/6 671/2/6
f 670/1/6 668/1/6 671/1/6
f 671/2/6 669/2/6 672/2/6
f 673/1/6 674/1/6 675/1/6
f 675/1/6 674/1/6 676/1/6
f 677/3/6 678/3/6 682/3/6
f 678/3/6 679/3/6 682/3/6
f 682/3/6 679/3/6 683/3/6
f 683/3/6 679/3/6 684/3/6
f 680/3/6 681/3/6 685/3/6
f 685/3/6 681/3/6 686/3/6
f 683/4/6 684/4/6 687/4/6
f 684/4/6 685/4/6 687/4/6
f 687/4/6 685/4/6 688/4/6
f 688/4/6 685/4/6 689/4/6
f 689/4/6 685/4/6 690/4/6
f 691/3/6 692/3/6 693/3/6
f 693/3/6 692/3/6 694/3/6
f 695/3/6 696/3/6 697/3/6
f 697/3/6 696/3/6 698/3/6
f 698/3/6 699/3/6 700/3/6
f 700/3/6 699/3/6 701/3/6
f 702/3/6 703/3/6 706/3/6
f 701/3/6 702/3/6 706/3/6
f 706/3/6 703/3/6 707/3/6
f 707/3/6 703/3/6 708/3/6
f 704/3/6 705/3/6 710/3/6
f 710/3/6 705/3/6 711/3/6
f 707/3/6 708/3/6 713/3/6
f 713/3/6 708/3/6 714/3/6
f 711/3/6 712/3/6 715/3/6
f 709/3/6 710/3/6 715/3/6
f 710/3/6 711/3/6 715/3/6
f 715/3/6 712/3/6 716/3/6
f 716/3/6 712/3/6 717/3/6
f 718/3/6 719/3/6 721/3/6
f 721/3/6 719/3/6 722/3/6
f 720/3/6 721/3/6 724/3/6
f 723/3/6 724/3/6 727/3/6
f 724/3/6 721/3/6 728/3/6
f 727/3/6 724/3/6 728/3/6
f 725/3/6 726/3/6 731/3/6
f 731/3/6 726/3/6 732/3/6
f 729/3/6 730/3/6 735/3/6
f 730/3/6 731/3/6 735/3/6
f 735/3/6 731/3/6 736/3/6
f 736/3/6 731/3/6 737/3/6
f 733/3/6 734/3/6 738/3/6
f 738/3/6 734/3/6 739/3/6
f 739/3/6 734/3/6 740/3/6
f 736/3/6 737/3/6 741/3/6
f 741/3/6 737/3/6 742/3/6
f 743/3/6 744/3/6 747/3/6
f 747/3/6 744/3/6 748/3/6
f 745/3/6 746/3/6 751/3/6
f 751/3/6 746/3/6 752/3/6
f 749/3/6 750/3/6 753/3/6
f 753/3/6 750/3/6 754/3/6
f 755/3/6 756/3/6 757/3/6
f 757/3/6 756/3/6 758/3/6
f 759/3/6 760/3/6 761/3/6
f 761/3/6 760/3/6 762/3/6
f 763/3/6 764/3/6 765/3/6
f 765/3/6 764/3/6 766/3/6
